<?xml version="1.0" encoding="utf-8"?>
<!-- Generator: Adobe Illustrator 27.7.0, SVG Export Plug-In . SVG Version: 6.00 Build 0)  -->
<svg version="1.1" id="Layer_1" xmlns="http://www.w3.org/2000/svg" xmlns:xlink="http://www.w3.org/1999/xlink" x="0px" y="0px"
	 viewBox="0 0 855 120" style="enable-background:new 0 0 855 120;" xml:space="preserve">
<style type="text/css">
	.st0{fill:#121112;}
	.st1{fill:#E53946;}
</style>
<g>
	<path class="st0" d="M820,102.5c0-9.4,7.9-17.3,17.3-17.3c9.4,0,17.3,7.9,17.3,17.3c0,9.4-7.9,17.3-17.3,17.3
		C828,119.8,820,111.9,820,102.5z"/>
	<g>
		<path class="st0" d="M0.4,72.6V6.2h29.3v65.4c0,13.2,7.9,22.7,23.6,22.7c15.4,0,23.4-9.5,23.4-22.7V6.2h29.1v66.2
			c0,27.8-16.9,47.3-52.5,47.3C17.3,119.8,0.4,100.1,0.4,72.6z"/>
		<path class="st0" d="M179.9,117.8V71.1c0-9.9-5.2-13.4-13.2-13.4c-7.7,0-12.7,4.2-15.7,7.9v52.2h-25.8V37H151v9.9
			c4.9-5.7,14.4-11.9,27.9-11.9c18.4,0,26.8,10.7,26.8,25.6v57.2H179.9z"/>
		<path class="st0" d="M222.6,14.9c0-8.2,6.5-14.7,14.7-14.7c8.2,0,14.7,6.5,14.7,14.7s-6.5,14.9-14.7,14.9
			C229.1,29.8,222.6,23.1,222.6,14.9z M224.4,117.8V37h25.8v80.8H224.4z"/>
		<path class="st0" d="M274.4,117.8V59.4H261V37h13.4v-4c0-17.1,12-28.4,28.9-28.4c8.7,0,17.7,2.3,23.3,8l-9.5,14.7
			c-2-2.2-4.3-3.2-8-3.2c-4.9,0-8.9,3.2-8.9,8.9v4h16.4v22.4h-16.4v58.4H274.4z"/>
		<path class="st0" d="M381.8,117.8v-9.7c-5,5.7-14.4,11.7-27.9,11.7c-18.4,0-26.6-10.4-26.6-25.3V37h25.8v47c0,9.7,5,13,13.4,13
			c7.4,0,12.4-4,15.4-7.9V37h25.8v80.8H381.8z"/>
		<path class="st0" d="M419.5,107.4l10.7-17.7c6,5.4,18.9,10.7,28.4,10.7c7.7,0,10.9-2.5,10.9-6.2c0-10.5-47-0.2-47-32.6
			c0-14.2,12.2-26.6,34.6-26.6c13.6,0,25.1,4.3,33.8,10.7L481,62.8c-4.9-4.7-14-8.9-23.8-8.9c-6,0-10.2,2.5-10.2,5.9
			c0,9.4,47,0.2,47,33.3c0,15.4-13.6,26.8-36.8,26.8C442.9,119.8,428,114.9,419.5,107.4z"/>
		<path class="st1" d="M505.4,14.9c0-8.2,6.5-14.7,14.7-14.7c8.2,0,14.7,6.5,14.7,14.7s-6.5,14.9-14.7,14.9
			C512,29.8,505.4,23.1,505.4,14.9z"/>
		<rect x="507.3" y="37" class="st0" width="25.8" height="80.8"/>
		<path class="st1" d="M546.4,77.3c0-22.7,16.6-42.3,44-42.3c27.8,0,44.2,19.6,44.2,42.3s-16.4,42.5-44.2,42.5
			C563,119.8,546.4,100.1,546.4,77.3z M608.1,77.3c0-10.7-6.4-19.6-17.7-19.6c-11.2,0-17.4,8.9-17.4,19.6c0,10.9,6.2,19.7,17.4,19.7
			C601.8,97,608.1,88.2,608.1,77.3z"/>
		<path class="st0" d="M698.4,117.8V71.1c0-9.9-5.2-13.4-13.2-13.4c-7.7,0-12.7,4.2-15.7,7.9v52.2h-25.8V37h25.8v9.9
			c4.8-5.7,14.4-11.9,27.9-11.9c18.4,0,26.8,10.7,26.8,25.6v57.2H698.4z"/>
		<path class="st0" d="M736.1,107.4l10.7-17.7c6,5.4,18.9,10.7,28.4,10.7c7.7,0,10.9-2.5,10.9-6.2c0-10.5-47-0.2-47-32.6
			c0-14.2,12.2-26.6,34.6-26.6c13.6,0,25.1,4.3,33.8,10.7l-9.9,17.1c-4.9-4.7-14-8.9-23.8-8.9c-6,0-10.2,2.5-10.2,5.9
			c0,9.4,47,0.2,47,33.3c0,15.4-13.6,26.8-36.8,26.8C759.5,119.8,744.6,114.9,736.1,107.4z"/>
		<g>
			<path class="st1" d="M534.5,11.4c6.3,37.7,46.1,24.5,46.1,24.3l-34.2,39.4c0.4-0.4,13.3-44-24.8-45.4L534.5,11.4z"/>
		</g>
	</g>
</g>
</svg>
